<?xml version="1.0" encoding="utf-8"?>
<!-- Generator: Adobe Illustrator 25.2.1, SVG Export Plug-In . SVG Version: 6.00 Build 0)  -->
<svg version="1.1" id="Layer_1" xmlns="http://www.w3.org/2000/svg" xmlns:xlink="http://www.w3.org/1999/xlink" x="0px" y="0px"
	 viewBox="0 0 50 50" style="enable-background:new 0 0 50 50;" xml:space="preserve">
<style type="text/css">
	.st0{fill:#6D676E;}
	.st1{fill:#FAA916;}
</style>
<g>
	<rect x="0" class="st0" width="50" height="50"/>
</g>
<g>
	<g>
		<path class="st1" d="M43,13.61H7c-1.1,0-2-0.9-2-2v-2c0-1.1,0.9-2,2-2h36c1.1,0,2,0.9,2,2v2C45,12.72,44.1,13.61,43,13.61z"/>
	</g>
	<g>
		<path class="st1" d="M43,28H7c-1.1,0-2-0.9-2-2v-2c0-1.1,0.9-2,2-2h36c1.1,0,2,0.9,2,2v2C45,27.1,44.1,28,43,28z"/>
	</g>
	<g>
		<path class="st1" d="M43,42.39H7c-1.1,0-2-0.9-2-2v-2c0-1.1,0.9-2,2-2h36c1.1,0,2,0.9,2,2v2C45,41.49,44.1,42.39,43,42.39z"/>
	</g>
</g>
</svg>
